<?xml version="1.0" standalone="no"?>
<!DOCTYPE svg PUBLIC "-//W3C//DTD SVG 20010904//EN"
 "http://www.w3.org/TR/2001/REC-SVG-20010904/DTD/svg10.dtd">
<svg version="1.0" xmlns="http://www.w3.org/2000/svg"
 width="260.000000pt" height="260.000000pt" viewBox="0 0 260.000000 260.000000"
 preserveAspectRatio="xMidYMid meet">
<metadata>
Created by potrace 1.11, written by Peter Selinger 2001-2013
</metadata>
<g transform="translate(0.000000,260.000000) scale(0.100000,-0.100000)"
fill="#000000" stroke="none">
<path d="M300 1380 l0 -350 65 0 c63 0 65 1 65 26 l0 25 33 -26 c66 -50 178
-49 252 3 157 110 144 377 -24 464 -73 38 -131 38 -205 -1 l-56 -30 0 120 0
119 -65 0 -65 0 0 -350z m336 31 c86 -53 84 -199 -5 -258 -39 -26 -77 -29
-125 -9 -92 39 -114 178 -38 248 15 14 34 28 42 31 33 12 96 6 126 -12z"/>
<path d="M1147 1535 c-22 -7 -50 -23 -63 -36 l-24 -22 0 32 0 32 -62 -3 -63
-3 0 -345 0 -345 63 -3 62 -3 0 122 c0 115 1 121 18 107 35 -32 85 -49 136
-49 134 0 233 98 244 242 14 193 -146 333 -311 274z m114 -120 c16 -9 39 -30
49 -48 25 -40 27 -128 4 -165 -53 -90 -181 -93 -234 -7 -25 40 -27 123 -5 166
32 62 121 87 186 54z"/>
<path d="M1755 1520 c-31 -16 -59 -30 -61 -30 -2 0 -4 11 -4 25 0 24 -3 25
-60 25 l-60 0 0 -255 0 -255 60 0 60 0 0 103 c1 56 5 133 10 172 7 60 13 74
39 97 19 17 43 28 60 28 81 0 91 -27 91 -235 l0 -165 64 0 64 0 4 158 c5 202
23 243 110 242 75 -1 88 -39 88 -247 l0 -153 66 0 66 0 -4 198 c-4 220 -11
249 -71 289 -71 49 -168 39 -237 -23 l-38 -34 -17 26 c-21 32 -88 63 -136 64
-22 0 -60 -12 -94 -30z"/>
</g>
</svg>
