<?xml version="1.0" standalone="no"?>
<!DOCTYPE svg PUBLIC "-//W3C//DTD SVG 20010904//EN"
 "http://www.w3.org/TR/2001/REC-SVG-20010904/DTD/svg10.dtd">
<svg version="1.0" xmlns="http://www.w3.org/2000/svg"
 width="260.000000pt" height="260.000000pt" viewBox="0 0 260.000000 260.000000"
 preserveAspectRatio="xMidYMid meet">
<metadata>
Created by potrace 1.11, written by Peter Selinger 2001-2013
</metadata>
<g transform="translate(0.000000,260.000000) scale(0.100000,-0.100000)"
fill="#000000" stroke="none">
<path d="M319 1673 c-1 -33 0 -627 0 -660 1 -21 6 -23 61 -23 33 0 61 5 61 10
1 6 3 15 4 20 1 6 3 12 4 16 0 3 17 -7 36 -21 45 -35 136 -45 198 -21 157 60
214 282 109 421 -69 91 -175 121 -273 78 -26 -12 -50 -26 -53 -32 -17 -27 -22
-3 -21 114 l1 125 -63 0 c-62 0 -63 0 -64 -27z m337 -300 c39 -25 57 -63 58
-123 2 -93 -55 -155 -140 -152 -78 3 -126 54 -130 139 -2 55 12 98 43 125 43
37 122 43 169 11z"/>
<path d="M1189 1506 c-25 -7 -60 -22 -77 -35 l-32 -22 0 24 c0 23 -4 25 -55
29 -30 1 -60 2 -65 0 -16 -6 -13 -689 3 -694 6 -3 35 -4 62 -4 l50 1 3 117 3
118 38 -26 c112 -74 271 -21 337 112 28 57 26 194 -3 249 -56 105 -160 157
-264 131z m99 -132 c85 -56 81 -206 -7 -258 -35 -20 -98 -23 -130 -6 -77 41
-99 165 -43 238 37 47 127 60 180 26z"/>
<path d="M1840 1509 c-49 -9 -83 -24 -99 -43 -19 -22 -29 -20 -27 7 1 20 -4
22 -64 25 l-65 3 1 -243 c1 -134 2 -249 3 -255 1 -9 20 -13 61 -13 41 0 60 4
61 13 0 6 2 75 3 152 3 159 15 204 65 229 39 21 87 11 109 -22 14 -21 18 -58
20 -199 l4 -173 64 0 64 0 1 63 c0 34 1 99 1 145 0 96 9 136 39 168 48 51 130
34 145 -28 4 -18 9 -98 10 -178 1 -80 3 -151 3 -158 1 -9 18 -12 64 -10 l62 3
1 170 c1 240 -14 293 -92 330 -71 34 -163 16 -226 -43 l-28 -25 -21 26 c-36
47 -97 68 -159 56z"/>
</g>
</svg>
