<?xml version="1.0" standalone="no"?>
<!DOCTYPE svg PUBLIC "-//W3C//DTD SVG 20010904//EN"
 "http://www.w3.org/TR/2001/REC-SVG-20010904/DTD/svg10.dtd">
<svg version="1.0" xmlns="http://www.w3.org/2000/svg"
 width="260.000000pt" height="260.000000pt" viewBox="0 0 260.000000 260.000000"
 preserveAspectRatio="xMidYMid meet">
<metadata>
Created by potrace 1.11, written by Peter Selinger 2001-2013
</metadata>
<g transform="translate(0.000000,260.000000) scale(0.100000,-0.100000)"
fill="#000000" stroke="none">
<path d="M340 1300 l0 -330 60 0 c53 0 60 2 60 20 0 25 5 25 43 -2 42 -30 140
-37 189 -14 49 24 98 74 120 124 22 49 25 140 7 200 -26 88 -110 153 -199 154
-60 0 -86 -8 -127 -39 l-33 -24 0 120 0 121 -60 0 -60 0 0 -330z m294 36 c93
-39 114 -174 36 -239 -39 -33 -77 -41 -125 -25 -108 36 -116 218 -12 263 41
18 60 18 101 1z"/>
<path d="M1169 1450 c-20 -4 -53 -16 -73 -28 -45 -27 -46 -27 -46 -2 0 18 -7
20 -55 20 l-55 0 0 -325 0 -325 55 0 55 0 0 110 c0 61 1 110 3 110 1 0 24 -11
51 -25 126 -64 265 -2 312 139 20 61 14 146 -14 202 -19 37 -92 113 -110 114
-4 1 -25 4 -47 8 -22 4 -56 5 -76 2z m66 -114 c62 -26 93 -116 66 -189 -25
-64 -102 -99 -163 -74 -55 24 -81 60 -85 119 -5 65 18 113 68 140 41 22 68 23
114 4z"/>
<path d="M1747 1446 c-26 -7 -59 -24 -72 -36 l-25 -23 0 26 c0 26 -2 27 -60
27 l-60 0 0 -235 0 -235 59 0 60 0 3 154 c3 139 5 158 24 183 40 53 108 56
141 6 14 -21 18 -56 21 -185 l4 -158 54 0 54 0 0 93 c1 50 5 123 10 162 7 60
13 74 39 97 34 30 56 34 95 17 38 -18 46 -58 46 -220 l0 -149 61 0 61 0 -4
188 c-2 156 -6 192 -21 219 -47 87 -179 102 -263 29 l-38 -33 -28 33 c-15 17
-41 35 -56 38 -15 4 -34 9 -42 11 -8 2 -37 -2 -63 -9z"/>
</g>
</svg>
