<?xml version="1.0" standalone="no"?>
<!DOCTYPE svg PUBLIC "-//W3C//DTD SVG 20010904//EN"
 "http://www.w3.org/TR/2001/REC-SVG-20010904/DTD/svg10.dtd">
<svg version="1.0" xmlns="http://www.w3.org/2000/svg"
 width="260.000000pt" height="260.000000pt" viewBox="0 0 260.000000 260.000000"
 preserveAspectRatio="xMidYMid meet">
<metadata>
Created by potrace 1.11, written by Peter Selinger 2001-2013
</metadata>
<g transform="translate(0.000000,260.000000) scale(0.100000,-0.100000)"
fill="#000000" stroke="none">
<path d="M390 1310 l0 -330 55 0 c48 0 55 2 55 20 0 11 1 20 3 20 1 0 24 -11
51 -25 163 -83 341 52 323 245 -16 179 -186 277 -332 192 -20 -12 -38 -22 -41
-22 -2 0 -4 52 -4 115 l0 115 -55 0 -55 0 0 -330z m295 36 c44 -19 75 -69 75
-123 0 -115 -89 -179 -185 -133 -98 48 -101 200 -4 252 41 22 68 23 114 4z"/>
<path d="M1197 1455 c-26 -6 -55 -19 -65 -28 -24 -22 -32 -21 -32 3 0 18 -7
20 -60 20 l-60 0 0 -325 0 -325 60 0 60 0 0 110 c0 61 2 110 5 110 3 0 19 -10
36 -22 43 -32 142 -37 196 -10 52 27 109 91 122 139 15 52 13 140 -3 186 -41
113 -146 171 -259 142z m99 -120 c65 -42 80 -144 31 -208 -67 -88 -199 -62
-228 45 -34 129 91 233 197 163z"/>
<path d="M1796 1458 c-22 -4 -55 -20 -73 -34 l-33 -25 0 25 c0 25 -2 26 -60
26 l-60 0 0 -235 0 -235 60 0 60 0 0 123 c1 151 10 194 50 230 37 33 70 34
107 3 l28 -24 3 -166 3 -166 59 0 58 0 4 154 c3 137 5 158 24 182 39 52 109
56 141 8 13 -21 17 -58 21 -185 l5 -159 53 0 54 0 0 174 c0 203 -4 227 -39
262 -34 34 -65 46 -123 45 -52 0 -99 -20 -133 -57 l-23 -24 -16 25 c-30 46
-102 69 -170 53z"/>
</g>
</svg>
