<?xml version="1.0" standalone="no"?>
<!DOCTYPE svg PUBLIC "-//W3C//DTD SVG 20010904//EN"
 "http://www.w3.org/TR/2001/REC-SVG-20010904/DTD/svg10.dtd">
<svg version="1.0" xmlns="http://www.w3.org/2000/svg"
 width="260.000000pt" height="260.000000pt" viewBox="0 0 260.000000 260.000000"
 preserveAspectRatio="xMidYMid meet">
<metadata>
Created by potrace 1.11, written by Peter Selinger 2001-2013
</metadata>
<g transform="translate(0.000000,260.000000) scale(0.100000,-0.100000)"
fill="#000000" stroke="none">
<path d="M220 1385 l0 -495 65 0 c63 0 65 1 65 25 0 31 1 31 51 0 80 -51 199
-50 274 3 48 33 101 108 116 165 17 62 7 184 -19 234 -54 104 -131 156 -236
156 -63 0 -128 -24 -155 -57 -8 -9 -17 -16 -22 -16 -5 0 -9 108 -9 240 l0 240
-65 0 -65 0 0 -495z m369 -53 c95 -70 105 -210 22 -293 -68 -68 -164 -62 -225
14 -26 32 -31 48 -34 106 -7 127 62 206 172 196 22 -2 51 -12 65 -23z"/>
<path d="M1196 1469 c-21 -5 -58 -22 -82 -39 l-44 -29 0 29 0 30 -65 0 -65 0
0 -440 0 -440 65 0 65 0 0 186 0 186 23 -16 c115 -85 262 -76 346 20 62 70 76
110 76 214 0 107 -17 157 -74 222 -56 65 -160 97 -245 77z m113 -137 c91 -67
105 -202 30 -287 -74 -84 -197 -67 -249 36 -25 48 -26 137 -4 186 18 36 65 77
99 86 35 10 97 -1 124 -21z"/>
<path d="M1877 1465 c-22 -7 -50 -23 -63 -36 l-24 -22 0 26 c0 27 -1 27 -65
27 l-65 0 0 -285 0 -285 64 0 63 0 5 188 c4 149 8 194 22 223 27 58 83 75 129
39 36 -29 47 -93 47 -285 l0 -165 64 0 64 0 4 193 c4 211 11 241 62 266 42 20
87 4 108 -39 15 -30 18 -64 18 -227 l0 -193 66 0 65 0 -3 233 -3 234 -27 41
c-60 90 -177 105 -280 36 l-50 -34 -28 29 c-16 15 -49 33 -74 40 -54 13 -52
13 -99 -4z"/>
</g>
</svg>
